<svg xmlns="http://www.w3.org/2000/svg" width="314" height="314" viewBox="0 0 314 314"><g transform="translate(-69 -2419)"><circle cx="157" cy="157" r="157" transform="translate(69 2419)" fill="#fff"/><g transform="translate(112.724 2473.463)"><path d="M602.613-1292.654a36.982,36.982,0,0,0-19.608-19.155c-9.013-3.65-19.362-2.322-28.856-3.544-8.245-1.063-14.194-4.744-19.118-11.288-4.717-6.271-8.946-13.215-16.659-16.116-6.095-2.291-13.023-1.656-19.081.733-11.161,4.4-19.591,13.756-26.691,23.079-6.482,8.512-11.769,17.831-23.759,18.134-5.426.138-10.734-1.186-16.039-2.51-6.424-1.6-12.844-3.209-19.46-2.215-15.965,2.4-29.261,15.688-32.047,31.509a38.914,38.914,0,0,0,15.2,37.663H589.979c14.184-15.048,21.628-35.834,12.634-56.29" transform="translate(-380.725 1440.815)" fill="#f7fbfc"/><path d="M739.721-944.1h.532a40.84,40.84,0,0,0,8.433-14.466,38,38,0,0,0-.354-26.174,75.5,75.5,0,0,0-6.225-11.486,73.63,73.63,0,0,1-6.28-11.643,25.962,25.962,0,0,1-1.454-5.38c-.133-.017-.267-.031-.4-.047a26.359,26.359,0,0,0,1.492,5.57,73.992,73.992,0,0,0,6.312,11.705,75.19,75.19,0,0,1,6.194,11.425,37.614,37.614,0,0,1,.346,25.906,40.393,40.393,0,0,1-8.6,14.589" transform="translate(-692.74 1148.547)" fill="#fff"/><path d="M1132.813-1230.6c3.987.85,7.828,1.612,11.545,2.092.064-.123.124-.247.188-.37-3.746-.476-7.624-1.243-11.65-2.1-6.132-1.307-12.77-2.72-19.351-2.72a34.33,34.33,0,0,0-12.03,1.987,24.5,24.5,0,0,0-4.258,2.07c-3.522-1.5-7.063-3.141-10.569-4.938,2.544-1.917,5.116-3.8,7.716-5.61,19.294-13.473,37.1-21.112,54.3-23.279-.034-.126-.07-.252-.106-.378-17.25,2.185-35.095,9.844-54.423,23.339-2.653,1.854-5.279,3.772-7.877,5.73a130.214,130.214,0,0,1-11.613-6.748,101.164,101.164,0,0,1-22.084-19.381c27.539-3.091,55.576-6.983,78.473-22.285.868-.582,1.832-1.267,2.829-2.043-.11-.079-.221-.156-.333-.233-.956.741-1.879,1.395-2.713,1.953-22.891,15.3-50.98,19.161-78.554,22.251a75.7,75.7,0,0,1-12.628-21.469c-4.856-12.866-4.6-25.491.7-34.639.23-.4.473-.789.724-1.177-.221.1-.441.208-.66.313q-.206.332-.4.668c-5.362,9.251-5.629,22-.732,34.974a75.96,75.96,0,0,0,12.53,21.381q-2.4.269-4.784.531c-5.743.633-11.68,1.29-17.446,2.032-2.1.271-4.245.587-6.374.982-4.565-9.635-9.58-19.034-16.062-27.1-.093.093-.187.182-.281.274,6.427,8,11.41,17.33,15.947,26.9-9.288,1.771-18.307,5.1-23.123,12.852-4.5,7.239-4.493,17.244.012,29.738.156.433.316.859.479,1.282h.417c-.178-.464-.356-.931-.53-1.415-4.463-12.376-4.479-22.268-.047-29.4,4.758-7.659,13.728-10.944,22.964-12.695,1.612,3.41,3.168,6.846,4.716,10.262l.168.372c5.373,11.862,10.931,23.309,18.208,32.876h.486c-7.344-9.584-12.933-21.1-18.339-33.036l-.168-.372c-1.534-3.387-3.078-6.795-4.675-10.175,2.089-.386,4.187-.7,6.252-.96,5.762-.742,11.7-1.4,17.438-2.031q2.514-.278,5.038-.559a101.4,101.4,0,0,0,22.335,19.655,130.692,130.692,0,0,0,11.483,6.685c-6.619,5.005-13.057,10.272-19.342,15.415q-3.266,2.671-6.6,5.379h.618q3.14-2.549,6.227-5.078c6.329-5.178,12.813-10.483,19.479-15.518,3.488,1.794,7.008,3.43,10.511,4.929a29,29,0,0,0-11.059,13.5c-.3.717-.554,1.441-.794,2.169h.411c.226-.679.467-1.352.742-2.022a28.565,28.565,0,0,1,11.135-13.461,256.922,256.922,0,0,0,27.685,9.694l.311.092a53.6,53.6,0,0,1,10.2,3.783c.087-.1.176-.2.263-.3a53.2,53.2,0,0,0-10.356-3.853l-.311-.092a258.121,258.121,0,0,1-27.385-9.571,24.228,24.228,0,0,1,3.952-1.892c10.094-3.74,21.289-1.356,31.164.749" transform="translate(-924.494 1418.181)" fill="#fff"/><path d="M444.311-885.232a31.171,31.171,0,0,1-2.1,20.842,35.893,35.893,0,0,1-8.451,10.914c.071.111.143.219.215.328a36.27,36.27,0,0,0,8.585-11.072,31.565,31.565,0,0,0,2.132-21.107,26.787,26.787,0,0,0-7.868-13.686c-.084.1-.168.2-.251.3a26.413,26.413,0,0,1,7.741,13.482" transform="translate(-427.566 1047.606)" fill="#fff"/><path d="M1093.4-1567.777a14.542,14.542,0,0,1,3.04,14.678,23.559,23.559,0,0,1-10.542,12.3c-3.834,2.232-8.836,3.463-12.608,1.125-2.818-1.746-4.28-5.173-4.361-8.487a22.056,22.056,0,0,1,2.411-9.56c1.942-4.252,4.556-8.373,8.449-10.958,5.367-3.564,10.353-2.426,13.611.9" transform="translate(-988.593 1641.043)" fill="#f7f0e3"/><path d="M653.819-2160.105h26.9v-11.372h-26.9Zm27.483.584H653.236v-12.54H681.3v12.54" transform="translate(-621.427 2172.061)" fill="#e9ddca"/><path d="M497.392-2057.374h26.9v-11.37h-26.9Zm27.483.583H496.808v-12.538h28.067v12.538" transform="translate(-483.258 2081.319)" fill="#e9ddca"/><path d="M1394.119-2106.271a43.383,43.383,0,0,0-9.59-16.664q-6.877-7.608-18.76-12.572t-30.2-4.968a118.109,118.109,0,0,0-29.774,3.941,88.479,88.479,0,0,0-26.347,11.258l9.692,26.608-5.195,4.208,7.534,2.215a110.6,110.6,0,0,1,20.326-8.479,70.276,70.276,0,0,1,19.468-2.627q10.3,0,15.6,4.968a15.857,15.857,0,0,1,5.293,11.992,23,23,0,0,1-5.433,15.054q-5.451,6.581-12.03,13.3-4.573,4.667-8.873,9.64a69.229,69.229,0,0,0-7.585,10.678,58.015,58.015,0,0,0-5.295,12.276,50.392,50.392,0,0,0-2,14.76c0,1.76.037,3.853.14,6.291.017.448.04.887.067,1.32h-7.122l7.772,5.256H1349.6a25.248,25.248,0,0,1-.288-4.092v-3.513a25.391,25.391,0,0,1,2-9.792,50.629,50.629,0,0,1,5.014-9.212,67.877,67.877,0,0,1,6.728-8.326q3.719-3.955,7.157-7.461,4.571-4.669,9.441-9.935a78.17,78.17,0,0,0,8.592-11.106,62.352,62.352,0,0,0,6.151-12.724,44.775,44.775,0,0,0,2.442-15.054,60.24,60.24,0,0,0-2.72-17.244" transform="translate(-1174.55 2144.162)" fill="#07adc3"/><path d="M1267.336-2110.2a70.818,70.818,0,0,0-19.239,2.543,110.568,110.568,0,0,0-20.087,8.205l-11.89-31.967a88.407,88.407,0,0,1,26.037-10.9,119.035,119.035,0,0,1,29.425-3.813q18.1,0,29.841,4.808t18.54,12.166a41.8,41.8,0,0,1,9.476,16.127,57.173,57.173,0,0,1,2.689,16.69,42.567,42.567,0,0,1-2.412,14.57,59.944,59.944,0,0,1-6.079,12.314,75.907,75.907,0,0,1-8.491,10.748q-4.809,5.1-9.33,9.615-3.4,3.4-7.073,7.221a66.156,66.156,0,0,0-6.65,8.059,48.673,48.673,0,0,0-4.954,8.915,24.109,24.109,0,0,0-1.981,9.476v3.4a23.68,23.68,0,0,0,.286,3.961H1248.1a39.458,39.458,0,0,1-.71-6.364c-.1-2.358-.138-4.384-.138-6.088a47.839,47.839,0,0,1,1.981-14.285,55.555,55.555,0,0,1,5.231-11.881,66.976,66.976,0,0,1,7.5-10.333q4.242-4.809,8.768-9.33,6.506-6.506,11.89-12.875a21.991,21.991,0,0,0,5.369-14.57,15.208,15.208,0,0,0-5.231-11.605q-5.236-4.807-15.418-4.808" transform="translate(-1118.609 2149.155)" fill="#dff3f6"/><path d="M1575.969-763.681q0,10.221-6.616,15.78a22.593,22.593,0,0,1-14.964,5.567,22.591,22.591,0,0,1-14.97-5.567q-6.607-5.563-6.61-15.78t6.61-15.778a23,23,0,0,1,24.786-2.987,21.252,21.252,0,0,1,11.764,18.764" transform="translate(-1398.334 946.711)" fill="#e49b31"/><path d="M1512.636-765.52q0,10.22-6.616,15.779a22.593,22.593,0,0,1-14.964,5.567,22.591,22.591,0,0,1-14.97-5.567q-6.607-5.563-6.61-15.779t6.61-15.778a22.631,22.631,0,0,1,14.97-5.567,22.633,22.633,0,0,1,14.964,5.567q6.616,5.575,6.616,15.778" transform="translate(-1342.393 948.55)" fill="#fbc343"/><path d="M819.067-1471.007a4.07,4.07,0,0,1-1.06,5.657,4.071,4.071,0,0,1-5.657-1.062,4.07,4.07,0,0,1,1.06-5.657,4.071,4.071,0,0,1,5.657,1.061" transform="translate(-761.341 1554.402)" fill="#d3dfff"/><path d="M862.843-1386.534a2.3,2.3,0,0,1-2.688,1.825,2.3,2.3,0,0,1-1.844-2.675,2.3,2.3,0,0,1,2.687-1.824,2.3,2.3,0,0,1,1.844,2.674" transform="translate(-802.53 1480.621)" fill="#d3dfff"/><path d="M654.941-1731.792a16.025,16.025,0,0,1-18.7,12.8,16.025,16.025,0,0,1-12.8-18.7,16.023,16.023,0,0,1,18.7-12.8,16.025,16.025,0,0,1,12.8,18.7" transform="translate(-594.866 1799.946)" fill="#d3dfff"/><path d="M694.5-1628.738a2.019,2.019,0,0,1-2.019,2.019,2.019,2.019,0,0,1-2.019-2.019,2.018,2.018,0,0,1,2.019-2.019,2.018,2.018,0,0,1,2.019,2.019" transform="translate(-654.307 1693.939)" fill="#fff"/><path d="M747.211-1628.738a2.019,2.019,0,0,1-2.019,2.019,2.019,2.019,0,0,1-2.019-2.019,2.018,2.018,0,0,1,2.019-2.019,2.018,2.018,0,0,1,2.019,2.019" transform="translate(-700.866 1693.939)" fill="#fff"/><path d="M799.924-1628.738a2.019,2.019,0,0,1-2.019,2.019,2.019,2.019,0,0,1-2.019-2.019,2.018,2.018,0,0,1,2.019-2.019,2.018,2.018,0,0,1,2.019,2.019" transform="translate(-747.427 1693.939)" fill="#fff"/><path d="M661.378-536.339l1.5,5.772a3.306,3.306,0,0,0,3.456,2.412c4.909-.333,15.109-1.536,20.963-5.85l-1.664-8.319c-8.049-.456-15.576-.008-22.094,2.187a3.188,3.188,0,0,0-2.158,3.8" transform="translate(-628.532 732.694)" fill="#102048"/><path d="M725.814-507.889a.2.2,0,0,1-.187-.142l-2.01-7.2a.194.194,0,0,1,.135-.24.193.193,0,0,1,.24.135l2.01,7.2a.2.2,0,0,1-.135.24.2.2,0,0,1-.052.006" transform="translate(-683.586 708.839)" fill="#fff"/><path d="M763.036-516.223a.2.2,0,0,1-.187-.142l-2.01-7.2a.194.194,0,0,1,.135-.24.193.193,0,0,1,.24.135l2.01,7.2a.2.2,0,0,1-.135.24.2.2,0,0,1-.052.006" transform="translate(-716.463 716.2)" fill="#fff"/><path d="M681.386-766.142l-18.707,5.553,13.893,19.035,19.945,1.586L724.028-751.6l-10.454-15.731-32.188,1.189" transform="translate(-629.768 931.297)" fill="#fbc343"/><path d="M851.217-753.2C892.3-765.362,898.9-729.053,834.8-722.443a31.014,31.014,0,0,1-5.961-10.664l33.851-15.643L851.217-753.2" transform="translate(-776.536 920.999)" fill="#fbc343"/><path d="M957.053-525.409a17.758,17.758,0,0,1-3.763-1.83l-6.6,2.071,1.513,7.182,6.859,1.393a14.744,14.744,0,0,0,1.993-8.817" transform="translate(-880.627 719.229)" fill="#f9b384"/><path d="M827.879-691.675l-.293-.5c7.062-4.1,25.151-13.965,40.562-16.872l.108.574c-15.323,2.89-33.341,12.714-40.377,16.8" transform="translate(-775.427 879.82)" fill="#e49b31"/><path d="M592.654-764.313c-38.24-7.27-48.144,29.48,15.956,36.089a23.289,23.289,0,0,0,5.089-9.254,291.938,291.938,0,0,0-32.921-18.816l11.875-8.02" transform="translate(-541.036 929.467)" fill="#fbc343"/><path d="M722.583-693.814c-1.819-1.158-3.715-2.381-5.721-3.678-10.074-6.5-21.491-13.875-31.192-18.078l.232-.535c9.745,4.222,21.184,11.607,31.276,18.123,2.006,1.3,3.9,2.52,5.718,3.676l-.313.492" transform="translate(-650.076 886.05)" fill="#e49b31"/><path d="M578.716-642.588l-.511-.282a10.726,10.726,0,0,1,6.834-5.209l.156.562a10.039,10.039,0,0,0-6.478,4.929" transform="translate(-555.154 825.964)" fill="#e49b31"/><path d="M1217.334-661.546a10.046,10.046,0,0,0-6.479-4.93l.156-.562a10.733,10.733,0,0,1,6.834,5.211l-.511.282" transform="translate(-1113.959 842.71)" fill="#e49b31"/><path d="M925.744-533.747l-.427-.4a21.863,21.863,0,0,0,5.744-10.574l.571.12a22.431,22.431,0,0,1-5.888,10.852" transform="translate(-861.751 734.668)" fill="#e49b31"/><path d="M1039.478-536.99c-4.9-3.027-14.4,2.2-16.782,2.467a5.718,5.718,0,0,1-2.29-.328,14.745,14.745,0,0,1-1.993,8.817l1.165.237a34.281,34.281,0,0,0,16.6,1.234c7.886-1.586,7.153-10.046,3.3-12.426" transform="translate(-943.98 728.672)" fill="#102048"/><path d="M1133.567-509.1a.192.192,0,0,1-.059-.009.2.2,0,0,1-.127-.244c.582-1.843.836-5.469-.85-7.9a.2.2,0,0,1,.05-.271.2.2,0,0,1,.271.05c1.766,2.549,1.506,6.326.9,8.242a.2.2,0,0,1-.186.137" transform="translate(-1044.747 710.679)" fill="#fff"/><path d="M1100.65-502.844a.192.192,0,0,1-.059-.009.193.193,0,0,1-.127-.243c.582-1.844.836-5.469-.85-7.9a.194.194,0,0,1,.049-.271.2.2,0,0,1,.271.05c1.766,2.549,1.506,6.326.9,8.242a.194.194,0,0,1-.185.135" transform="translate(-1015.673 705.156)" fill="#fff"/><path d="M678.932-1293.277s9.631-8.189,9.274-9.746c-.255-1.113-2.983.518-2.983.518s3.826-4.538,3.631-5.091c-.348-.984-2.994.851-2.994.851s1.789-2.574.933-2.993-2.719,1.167-2.719,1.167,1.089-1.43.577-1.805-2.719,1.167-2.719,1.167.792-1.8-.891-1.119-13.483,11.512-13.483,11.512l11.372,5.537" transform="translate(-634.079 1411.048)" fill="#f9b384"/><path d="M764.889-1268.019a.194.194,0,0,1-.131-.051,8.848,8.848,0,0,0-4.206-2.439.194.194,0,0,1-.129-.243.193.193,0,0,1,.243-.128,9.144,9.144,0,0,1,4.354,2.521.2.2,0,0,1,.012.276.194.194,0,0,1-.144.064" transform="translate(-716.096 1376.077)" fill="#e28b6d"/><path d="M772.415-1231.205l-.027,0a.2.2,0,0,1-.166-.219,3.268,3.268,0,0,1,1.3-2.588,2.53,2.53,0,0,1,2.274.1.2.2,0,0,1,.1.255.2.2,0,0,1-.256.1,2.171,2.171,0,0,0-1.929-.12,2.974,2.974,0,0,0-1.109,2.3.194.194,0,0,1-.192.168" transform="translate(-726.523 1343.705)" fill="#e28b6d"/><path d="M768.526-1298.568a.2.2,0,0,1-.142-.062.193.193,0,0,1,.008-.274l2.417-2.278a.2.2,0,0,1,.275.008.2.2,0,0,1-.008.276l-2.417,2.277a.194.194,0,0,1-.133.054" transform="translate(-723.088 1402.882)" fill="#e28b6d"/><path d="M787.692-1292.972a.2.2,0,0,1-.135-.054.2.2,0,0,1-.006-.275l2.321-2.418a.194.194,0,0,1,.275-.006.2.2,0,0,1,.006.275l-2.321,2.418a.192.192,0,0,1-.14.061" transform="translate(-740.018 1398.063)" fill="#e28b6d"/><path d="M807.276-1277.78a.2.2,0,0,1-.133-.053.2.2,0,0,1-.01-.275l1.821-1.953a.2.2,0,0,1,.275-.009.193.193,0,0,1,.01.274l-1.821,1.955a.2.2,0,0,1-.142.062" transform="translate(-757.315 1384.233)" fill="#e28b6d"/><path d="M780.767-1045.143l-35.212,1.362-3.891-32.1s11.788-11.182,16.323-15.3l7.656-.392c23.754,10.8,19.865,24.282,15.123,46.428" transform="translate(-699.535 1217.69)" fill="#3a6bea"/><path d="M947.1-1091.571s27.177,2.324,35.744,20.943c8.383,18.218-26.068,24.707-26.068,24.707l-9.676-45.65" transform="translate(-880.992 1217.69)" fill="#3a6bea"/><path d="M505.063-1208.979l11.23-13.666-10.5-6.365a137.052,137.052,0,0,0-20.031,17.759,14.83,14.83,0,0,0-3.446,5.956,12.818,12.818,0,0,0-.329,5.592,10.8,10.8,0,0,0,9.542,9.041c4.278.5,20.621-.778,33.85-4.669l3.891-15.017c-2-1.135-16.859-1.332-24.2,1.37" transform="translate(-470.018 1339.087)" fill="#3a6bea"/><path d="M1033.029-1067.556c-1.785,0-4.375-.4-5.319-2.554a4.506,4.506,0,0,1,.5-4.1l.291.084a4.246,4.246,0,0,0-.525,3.9c.879,2,3.333,2.38,5.044,2.38a11.938,11.938,0,0,0,1.429-.086,58.6,58.6,0,0,0,6.072-1.172l.37.215c-.059.014-.117.028-.176.041a59.941,59.941,0,0,1-6.231,1.206,12.365,12.365,0,0,1-1.456.087" transform="translate(-951.927 1202.356)" fill="#d8e1fb"/><path d="M1176.9-845.057a8.552,8.552,0,0,1-2.011-5.614,5.685,5.685,0,0,1,4.718-5.453c.152-.014.3-.02.455-.02a10.174,10.174,0,0,1,3.6.907c.463.179.933.36,1.409.514-.023.095-.047.188-.072.283-.489-.157-.969-.341-1.442-.524a9.845,9.845,0,0,0-3.485-.889c-.143,0-.287.006-.432.02a5.383,5.383,0,0,0-4.454,5.175,8.268,8.268,0,0,0,1.968,5.444c-.082.053-.165.106-.248.157" transform="translate(-1082.187 1009.743)" fill="#d8e1fb"/><path d="M546.574-935.71c-.1-.03-.2-.067-.3-.1a12.491,12.491,0,0,1,6.323-3.743,11.312,11.312,0,0,1,2.824-.378,6.827,6.827,0,0,1,4.408,1.407,6.685,6.685,0,0,1,1.83,2.552l-.3.034a6.329,6.329,0,0,0-1.714-2.361,6.53,6.53,0,0,0-4.221-1.342,11.038,11.038,0,0,0-2.753.37,12.231,12.231,0,0,0-6.1,3.559" transform="translate(-526.951 1083.75)" fill="#d8e1fb"/><path d="M530.989-1178.949l.38-.394a34.47,34.47,0,0,0,8.617-3.407,9.722,9.722,0,0,0,3.071-2.5,4.145,4.145,0,0,0,.769-3.685,2.82,2.82,0,0,0-.739-1.156l.225-.184a3.086,3.086,0,0,1,.792,1.248,4.439,4.439,0,0,1-.812,3.952,9.985,9.985,0,0,1-3.161,2.582,35.169,35.169,0,0,1-9.143,3.547" transform="translate(-513.45 1304.875)" fill="#d8e1fb"/><path d="M894.055-1156.451l0,.5-.079,7.74-.01.839a4.808,4.808,0,0,1-1.421,3.365,4.817,4.817,0,0,1-3.369,1.406,4.821,4.821,0,0,1-4.849-4.775l-.094-9.565,9.826.493" transform="translate(-825.458 1275.432)" fill="#f9b384"/><path d="M921.821-1148.45l-.079,7.74c-4.3-1.751-6.072-6.407-6.072-6.407l6.151-1.332" transform="translate(-853.229 1267.93)" fill="#102048"/><path d="M888.229-1269.292c1.542,1.85,6.043,12.332,1.48,15.909-5.135,4.025-12.949-2.59-12.949-2.59l-1.048-12.209,6.783-1.788,5.734.679" transform="translate(-817.936 1375.266)" fill="#f9b384"/><path d="M788.658-1269.917s-15.044,7.847-2.778,30.465a6.161,6.161,0,0,0,8.05,2.755h0a6.1,6.1,0,0,0,2.676-8.522c-2.007-3.564-3.943-8.154-3.117-11.57l-4.833-13.128" transform="translate(-734.336 1375.219)" fill="#102048"/><path d="M831.554-1268.889a4.069,4.069,0,0,1-4.07,4.07,4.069,4.069,0,0,1-4.069-4.07,4.068,4.068,0,0,1,4.069-4.068,4.069,4.069,0,0,1,4.07,4.068" transform="translate(-771.743 1377.904)" fill="#fbc343"/><path d="M844.27-1299.744c-.44-2.538-.708-4.28,1.858-5.589,0,0,9.043,1.645,10.77-1.766s-.9-8.8-6.413-5.057c-14.1-2.755-15.99,10.441-11.715,14.839l4.22-.647a1.537,1.537,0,0,0,1.28-1.78" transform="translate(-783.522 1413.649)" fill="#102048"/><path d="M957.209-1200.69a.6.6,0,0,1-.6.6.6.6,0,0,1-.6-.6.6.6,0,0,1,.6-.6.6.6,0,0,1,.6.6" transform="translate(-888.858 1314.602)" fill="#102048"/><path d="M992.075-1217.863a.6.6,0,0,1-.6.6.6.6,0,0,1-.6-.6.6.6,0,0,1,.6-.6.6.6,0,0,1,.6.6" transform="translate(-919.653 1329.771)" fill="#102048"/><path d="M982.537-1201.3a.171.171,0,0,1-.117-.047.171.171,0,0,1-.006-.241c.241-.254.505-.61.394-.868s-.6-.385-.826-.385c-.48,0-.71-.854-.751-1.026a.171.171,0,0,1,.125-.205.171.171,0,0,1,.205.126c.088.361.286.764.42.764.23,0,.932.107,1.139.59.148.345-.007.761-.46,1.239a.168.168,0,0,1-.123.053" transform="translate(-911.133 1317.064)" fill="#102048"/><path d="M972.769-1166.409a.165.165,0,0,1-.1-.03,2.275,2.275,0,0,0-2.286-.117.171.171,0,0,1-.232-.062.172.172,0,0,1,.062-.234,2.587,2.587,0,0,1,2.647.131.171.171,0,0,1,.046.237.171.171,0,0,1-.141.075" transform="translate(-901.334 1284.453)" fill="#102048"/><path d="M939.507-1220.579c.342.643-.254.773-.952,1.144s-1.413.507-1.576.2.271-.856.969-1.228,1.295-.613,1.56-.115" transform="translate(-872.02 1331.888)" fill="#102048"/><path d="M980.59-1235.01c.15.574.579.324,1.2.16s1.127-.476,1.055-.75-.635-.364-1.258-.2-1.115.345-1,.791" transform="translate(-910.556 1345.156)" fill="#102048"/><path d="M923.972-1183.745a1.773,1.773,0,0,1-1.773-1.773,1.772,1.772,0,0,1,1.773-1.773,1.772,1.772,0,0,1,1.773,1.773,1.773,1.773,0,0,1-1.773,1.773" transform="translate(-858.996 1302.237)" fill="#f39176"/><path d="M861.419-1193.084a2.58,2.58,0,0,1,.693,3.567,2.582,2.582,0,0,1-3.627.233,2.58,2.58,0,0,1-.693-3.567,2.579,2.579,0,0,1,3.627-.233" transform="translate(-801.709 1307.908)" fill="#f9b384"/><path d="M872.261-1179.417a.17.17,0,0,1-.17-.17,1.5,1.5,0,0,0-.655-1.244,1.2,1.2,0,0,0-1.119-.148.171.171,0,0,1-.222-.094.171.171,0,0,1,.093-.222,1.543,1.543,0,0,1,1.437.182,1.831,1.831,0,0,1,.806,1.525.17.17,0,0,1-.17.17" transform="translate(-812.963 1297.03)" fill="#102048"/><path d="M627.394-1051.622l-.286-.265,6.144-6.644.286.265-6.144,6.644" transform="translate(-598.349 1188.506)" fill="#102048"/><path d="M1049.625-876.567l-.113-.372c4.472-1.363,8.811-2.994,12.744-7.912l.3.243c-4,5.005-8.4,6.659-12.935,8.041" transform="translate(-971.449 1035.099)" fill="#102048"/><path d="M767.181-942.958H729.142a2.584,2.584,0,0,0-2.477,2.678v27.159a2.584,2.584,0,0,0,2.477,2.68h38.039a2.584,2.584,0,0,0,2.477-2.68v-27.159a2.584,2.584,0,0,0-2.477-2.678" transform="translate(-686.285 1086.423)" fill="#d3dfff"/><path d="M889.776-825.038H885.76a1.052,1.052,0,0,0-1.04,1.061v2.867a1.052,1.052,0,0,0,1.04,1.061h4.016a1.052,1.052,0,0,0,1.04-1.061v-2.867A1.052,1.052,0,0,0,889.776-825.038Zm0,.778a.272.272,0,0,1,.261.283v2.867a.273.273,0,0,1-.261.283H885.76a.273.273,0,0,1-.261-.283v-2.867a.273.273,0,0,1,.261-.283h4.016" transform="translate(-825.892 982.268)" fill="#1f3c88"/></g></g></svg>